<svg t="1592037041006" class="icon" viewBox="0 0 1024 1024" version="1.1" xmlns="http://www.w3.org/2000/svg" p-id="4918" width="200" height="200"><path d="M641.561309 479.184617 215.51289 479.184617c-83.508949 0-151.454434-67.927065-151.454434-151.419641 0-20.033265 16.236799-36.275181 36.275181-36.275181 20.039405 0 36.275181 16.242939 36.275181 36.275181 0 43.490513 35.402301 78.868255 78.904071 78.868255l426.048419 0c43.502793 0 78.903048-35.377742 78.903048-78.868255 0-20.033265 16.235776-36.275181 36.275181-36.275181 20.040429 0 36.275181 16.242939 36.275181 36.275181C793.015743 411.256528 725.071282 479.184617 641.561309 479.184617z" p-id="4919"></path><path d="M640.709919 902.162094 216.364281 902.162094c-83.250052 0-150.98269-67.710125-150.98269-150.947897L65.381591 326.83786c0-83.243913 67.732637-150.97041 150.98269-150.97041l44.789089 0c20.039405 0 36.275181 16.242939 36.275181 36.275181s-16.235776 36.275181-36.275181 36.275181l-44.789089 0c-43.242873 0-78.432327 35.177174-78.432327 78.420047l0 424.376337c0 43.230594 35.189454 78.396511 78.432327 78.396511l424.346661 0c43.242873 0 78.432327-35.165918 78.432327-78.396511L719.143269 326.83786c0-43.24185-35.190477-78.420047-78.432327-78.420047l-56.94085 0c-20.037359 0-36.275181-16.242939-36.275181-36.275181s16.237823-36.275181 36.275181-36.275181l56.94085 0c83.250052 0 150.98269 67.727521 150.98269 150.97041l0 424.376337C791.692608 834.452993 723.959971 902.162094 640.709919 902.162094z" p-id="4920"></path><path d="M766.470157 754.084571c-20.037359 0-36.273135-16.236799-36.273135-36.275181 0-20.032242 16.235776-36.275181 36.273135-36.275181 66.671469 0 120.92-54.243415 120.92-120.917954 0-66.677609-54.248531-120.918977-120.92-120.918977-20.037359 0-36.273135-16.242939-36.273135-36.275181s16.235776-36.275181 36.273135-36.275181c106.677625 0 193.470363 86.791715 193.470363 193.46934C959.94052 667.291832 873.147782 754.084571 766.470157 754.084571z" p-id="4921"></path><path d="M366.744243 350.289991c-3.542686 0-7.143701-0.779759-10.54517-2.427282-12.008498-5.832845-17.027815-20.298302-11.206226-32.313963 6.578836-13.785981 19.850094-55.063083 2.208295-79.328743-39.947827-54.920844-1.937119-110.85783-0.295735-113.207341 7.628748-10.975982 22.683628-13.674441 33.665751-6.039553 10.910491 7.592932 13.638625 22.565948 6.14086 33.512255-2.149966 3.212158-19.554358 30.956036-0.402159 57.288774 38.377052 52.760644 3.696182 125.795031 2.208295 128.877229C384.33897 345.270674 375.718639 350.289991 366.744243 350.289991z" p-id="4922"></path><path d="M487.66322 350.289991c-3.543709 0-7.144724-0.779759-10.54517-2.427282-12.009522-5.832845-17.028838-20.298302-11.208273-32.313963 6.578836-13.785981 19.85214-55.063083 2.208295-79.328743-39.946804-54.920844-1.937119-110.85783-0.294712-113.207341 7.617491-10.975982 22.684652-13.674441 33.665751-6.039553 10.911514 7.592932 13.638625 22.565948 6.14086 33.512255-2.15099 3.212158-19.555381 30.956036-0.402159 57.288774 38.377052 52.760644 3.696182 125.795031 2.208295 128.877229C505.2559 345.270674 496.635569 350.289991 487.66322 350.289991z" p-id="4923"></path></svg>